<svg xmlns="http://www.w3.org/2000/svg" version="1.1" xmlns:xlink="http://www.w3.org/1999/xlink" width="1500" height="571" viewBox="0 0 1500 571"><svg xml:space="preserve" width="1500" height="571" data-version="2" data-id="lg_Wg2hefOTWqnEtC9I2R" viewBox="0 0 473 571" x="0" y="0"><rect width="100%" height="100%" fill="transparent"></rect><circle r="151.402" fill="none" stroke="#444" transform="translate(236.42 206.26)scale(1.32)"></circle><rect width="350.192" height="131.082" x="-175.096" y="-65.541" fill="#fff" rx="0" ry="0" transform="translate(236.5 359.14)scale(1.32)"></rect><path fill="#444" d="m215.021 108.497-5.951 12.556 15.63 12.623 9.68-10.312-.306-.327zm32.068 25.157 15.609-12.623-5.952-12.556-19.402 14.802z"></path><path fill="#444" d="m265.401 121.664-18.508 14.976-9.352-9.94v181.223h59.557l-.828-131.236 38.477 11.38 10.333-47.263-81.597-23.195zm-40.483 14.976-18.53-14.976 1.984-4.208-81.292 22.498 11.162 48.549 37.67-12.361v131.781h58.511V126.547zm.11 150.399a3.27 3.27 0 1 1 0-6.54 3.27 3.27 0 0 1 0 6.54m0-25.506a3.27 3.27 0 1 1 0-6.54 3.27 3.27 0 0 1 0 6.54m0-25.506a3.27 3.27 0 1 1 0-6.54 3.27 3.27 0 0 1 0 6.54m0-25.506a3.27 3.27 0 1 1 0-6.54 3.27 3.27 0 0 1 0 6.54m0-25.506a3.27 3.27 0 1 1 0-6.54 3.27 3.27 0 0 1 0 6.54m0-25.506a3.27 3.27 0 1 1 0-6.54 3.27 3.27 0 0 1 0 6.54M127.43 451.85q0-.53.87-.53.52 0 1.04.27.52.26.35.6-1.57 9.05-1.57 22.97 0 1.39-.52 2-.52.61-2.09.61H47.56q-.7 0-.7-1.04 0-1.05.53-1.05 6.26 0 9.13-.87 2.87-.87 3.92-3.39 1.04-2.52 1.04-7.74v-80.56q-.35-5.22-1.39-7.66-1.05-2.44-3.92-3.39-2.87-.96-8.96-.96-.52 0-.52-1.04 0-1.05.35-1.05h73.6q.7 0 .96.35t.26 1.22q.52 9.57.52 21.57 0 .7-1.04.7-1.05 0-1.05-.7-.87-9.22-5.83-14.87-4.96-5.66-12.79-5.66H86.01q-6.09 0-8.87.87-2.78.87-3.74 3.22-.96 2.35-1.13 7.57v36.02h27.14q7.66 0 10.79-2.7 3.13-2.7 2.96-9.48 0-.7 1.04-.7 1.05 0 .87.7v14.09l.18 7.66q.34 5.22.34 8.52 0 .7-1.13.7t-1.13-.7q0-7.83-3.39-11.13-3.39-3.31-11.4-3.31H72.27v40.02q0 5.05 1.04 7.4 1.05 2.35 3.83 3.22 2.78.87 8.7.87h20.88q7.31 0 12.88-6.18 5.56-6.18 7.83-16.44m95.7 12.53.34-.17q.7 0 1.31.61.61.61.26.96-5.39 6.96-9.48 10.26-4.09 3.31-8.62 3.31-9.91 0-9.57-13.75l.18-30.97q0-19.49-10.27-19.49-6.61 0-12.09 7.14-5.48 7.13-8.79 21.05-3.3 13.92-3.48 33.23 0 1.22-1.48 1.92-1.48.69-4.26.69-2.61 0-3.48-.26-.87-.26-1.22-.78 0-.7.26-4.78.26-4.09.26-8.44l.35-38.81q0-5.22-1.39-7.74-1.39-2.52-3.83-2.52-3.83 0-11.66 8.35-.34.35-.52.35-.69 0-1.22-.61-.52-.61-.17-1.13 5.22-6.96 9.74-10.35 4.53-3.4 9.4-3.4t7.05 3.31q2.17 3.3 2.17 10.09v24.71q3.31-18.27 10.88-28.54 7.57-10.26 18.35-10.26 7.66 0 11.49 5.48t3.65 17.48l-.17 30.98q0 5.22 1.13 7.65 1.13 2.44 3.74 2.44 4 0 11.14-8.01m83.17 0q.17-.17.52-.17.52 0 1.13.61.61.61.44.96-5.57 7.13-9.66 10.35-4.09 3.22-8.61 3.22-4.88 0-7.4-3.57-2.52-3.57-2.35-10.18l.35-19.83q-5.39 15.83-13.49 25.05-8.09 9.22-18.18 9.22-8.18 0-14.01-6.09-5.82-6.09-5.82-18.44 0-12.35 5.91-23.23 5.92-10.87 15.57-17.4 9.66-6.52 20.1-6.52 5.92 0 10.44 2.26l.52-40.54q.35-8.18-5.56-8.18-3.31 0-8.88 2.61-.17.17-.52.17-.7 0-.96-.87t.44-1.22l22.79-10.96h.35q.52 0 1.22.52.69.53.69.87l-1.04 109.28q0 5.22 1.13 7.65 1.13 2.44 3.74 2.44 4 0 11.14-8.01m-52.72 7.14q8 0 14.18-7.22 6.17-7.22 9.65-17.23 3.48-10 3.48-17.66 0-7.31-4-11.14-4-3.82-11.48-3.82-7.66 0-13.75 4.09-6.09 4.08-9.57 11.83-3.48 7.74-3.48 18.35.18 11.49 4.18 17.14 4 5.66 10.79 5.66m112.4-3.31h.35q.52 0 1.13.52.61.53.26 1.05-11.48 10.09-25.58 10.09-9.74 0-16.7-4.52-6.96-4.53-10.44-12.01-3.48-7.48-3.48-16.01 0-10.09 4.7-19.05 4.69-8.96 12.96-14.44 8.26-5.48 18.7-5.48 6.96 0 10.88 2.52 3.91 2.52 3.91 6.87-.17 7.66-11.83 14.01t-28.71 8.79q.35 15.13 7.05 24.27 6.7 9.13 19.05 9.13 4.53 0 9.22-1.39 4.7-1.39 8.53-4.35m-25.58-55.16q-8.87 0-13.4 6.96-4.52 6.96-4.87 18.1 28.02-4.7 28.02-17.92 0-3.48-2.61-5.31-2.61-1.83-7.14-1.83m76.56-4.17q4 0 7.74 2.61 3.75 2.61 3.75 5.91 0 2.44-1.74 4.09-1.74 1.66-4.01 1.66-1.91 0-3.13-.7t-2.61-1.91q-.87-.87-1.83-1.48-.95-.61-2.17-.61-4 0-7.83 9.92-3.83 9.91-6.35 23.75-2.52 13.83-2.7 24.44 0 1.22-1.48 1.92-1.48.69-4.09.69t-3.48-.26q-.87-.26-1.04-.78 0-.7.17-3.91.18-3.22.18-9.31l.35-32.19q0-16.88-6.62-16.88-5.22 0-11.13 6.26l-.35.18q-.52 0-.96-.53-.43-.52-.26-.87 4.35-5.56 9.48-8.7 5.14-3.13 9.66-3.13 4.87 0 7.4 4.87 2.52 4.88 2.35 18.45v20.18q2.61-18.27 8-30.97 5.39-12.7 12.7-12.7M67.11 559.01q0-.7-.26-1.35-.26-.64-.76-1.07-.51-.43-1.13-.43-.85 0-1.58.67v3.76q.82.64 1.75.64.94 0 1.46-.61.52-.62.52-1.61m-4.76 3.01q-.27 0-.27-.62v-7.96q0-.62-.49-.67-.05-.01-.12-.01-.08-.01-.11-.01-.04-.01-.09-.02-.05-.01-.07-.02-.03-.01-.05-.03-.04-.04-.04-.2t.21-.33q.38-.31 1.03-.31.69 0 .81.08.23.16.23.43v3.78q1.02-.87 2.32-.87 1.3 0 2.08.91.79.9.79 2.36 0 .92-.4 1.73-.4.82-1.12 1.32-.72.51-1.58.51-1.23 0-2.39-.77-.01.01-.18.24-.33.46-.56.46m11.65-.81q-.95-.93-.95-2.47 0-1.53.96-2.5.95-.96 2.43-.96 1.17 0 1.97.76t.8 1.9q0 .55-.87.55h-3.96q.01 1.11.72 1.87.7.76 1.77.76.72 0 1.39-.42.35-.22.45-.22.1 0 .23.1.12.1.12.24 0 .38-.48.7-.48.31-1.06.47-.58.15-1.02.15-1.55 0-2.5-.93m3.95-3.44q-.01-.78-.41-1.28-.39-.49-1.15-.49-.77 0-1.34.55-.57.55-.6 1.25h1.6q1.06 0 1.9-.03m8.88 3.56q1.54 0 1.54-.94 0-.71-1.39-1.11-.26-.08-.62-.18-.7-.19-.93-.28-.61-.23-1.02-.68-.42-.44-.42-1.05 0-.79.75-1.31t1.81-.52q1.03 0 1.93.38.45.18.72.51.28.33.28.69 0 .35-.28.56-.29.22-.59.22-.31 0-.41-.06-.09-.06-.09-.27 0-1.32-1.41-1.32-.58 0-1.01.25-.43.26-.43.67 0 .64 1.34 1.02.21.05.51.13.3.08.56.16.25.08.53.18.27.11.58.28.31.17.5.37.45.45.45 1.09 0 .64-.44 1.1-.85.91-2.46.91-1.04 0-1.92-.34-.46-.18-.73-.49-.27-.31-.27-.67 0-.36.22-.55.23-.2.52-.2.28 0 .48.18.21.18.21.44 0 .27-.05.57.72.26 1.54.26m8.25-1.21v-3.82h-.41q-.26 0-.37-.05-.12-.04-.12-.2 0-.15.13-.28.14-.12.31-.19.47-.19.56-.33.09-.13.28-.58.46-1.13.76-1.13.16 0 .19.34.02.34.02.52.01.17 0 .53-.01.35-.01.48l1.63.01q.24 0 .4.12.17.12.17.32t-.16.31q-.16.11-.4.11h-1.64v3.49q0 1.48.74 1.48.21 0 .61-.12.4-.13.53-.13.28 0 .28.32 0 .25-.66.51-.66.25-1.36.25-.69 0-1.08-.54-.4-.54-.4-1.42m20.42.5q.31 0 .31.29 0 .16-.1.26-.91.97-2.61.97-1.7 0-2.7-.92-.99-.92-.99-2.44 0-.99.48-1.8.48-.8 1.31-1.25.83-.45 1.85-.45 1.41 0 2.18.73.4.39.4.91 0 .31-.26.52-.25.21-.61.21-.35 0-.51-.06-.05-.77-.32-1.19-.27-.41-.9-.41-1.04 0-1.64.66-.59.66-.59 1.79 0 1.12.76 1.94.75.83 1.9.83.68 0 1.66-.48.22-.11.38-.11m6.82 1.34h-.58q-.9 0-1.11-.27-.1-.12-.1-.3 0-.17.14-.24.14-.07.3-.08.16 0 .3-.1.14-.1.14-.32v-7.22q0-.62-.49-.67-.05-.01-.13-.01-.07-.01-.11-.01-.03-.01-.08-.02t-.08-.02q-.02-.01-.04-.03-.05-.04-.05-.2t.21-.33q.39-.31 1.03-.31.69 0 .81.08.23.16.23.43v8.31q0 .4.44.42.45.02.45.35 0 .38-.41.47-.32.07-.87.07m9.16.18q-1.55 0-2.49-.98-.95-.97-.95-2.47 0-1 .5-1.78.5-.77 1.35-1.19.85-.41 1.9-.41 1.5 0 2.48.93.98.94.98 2.42 0 1.03-.5 1.83-.51.79-1.36 1.22-.85.43-1.91.43m.28-.76q1.01 0 1.59-.69.57-.69.57-1.84 0-1.15-.66-1.98-.66-.84-1.68-.84-1.03 0-1.59.71-.55.7-.55 1.84 0 1.14.65 1.97.65.83 1.67.83m8.4-1.26v-3.82h-.42q-.25 0-.37-.05-.11-.04-.11-.2 0-.15.13-.28.13-.12.31-.19.47-.19.56-.33.09-.13.28-.58.45-1.13.76-1.13.16 0 .18.34.03.34.03.52v.53q-.01.35-.01.48l1.63.01q.24 0 .4.12.16.12.16.32t-.16.31q-.16.11-.4.11h-1.63l-.01 3.49q0 1.48.75 1.48.2 0 .61-.12.4-.13.52-.13.28 0 .28.32 0 .25-.66.51-.66.25-1.35.25-.69 0-1.09-.54-.39-.54-.39-1.42m15.08 1.84h-.59q-.89 0-1.11-.27-.09-.12-.09-.3 0-.17.13-.24.14-.07.31-.08.17 0 .3-.1.14-.1.14-.32l.01-1.99q0-1.26-.3-1.85-.33-.67-1.37-.67-1.1 0-1.53.69-.4.64-.4 1.87v1.95q0 .4.44.42.44.02.44.35 0 .38-.41.47-.31.07-.86.07h-.59q-.89 0-1.1-.27-.1-.12-.1-.3 0-.17.14-.24.13-.07.3-.08.17 0 .31-.1.13-.1.13-.32v-7.44q0-.4-.49-.48-.34-.06-.41-.12-.08-.07-.08-.22t.15-.27q.14-.12.37-.19.41-.1.92-.1.85 0 .85.51v3.97q.93-1.05 2.35-1.05t1.98.72q.56.73.56 2.21l-.01 2.46q0 .4.44.42.44.02.44.35 0 .38-.41.47-.31.07-.86.07m6.6-8.57q0-.3.29-.57.29-.26.64-.26.34 0 .67.21.32.21.32.56 0 .35-.27.59-.27.23-.67.23t-.69-.22q-.29-.21-.29-.54m1.43 8.58h-.59q-.89 0-1.11-.27-.09-.12-.09-.3 0-.17.14-.24.13-.07.3-.08.17 0 .3-.1.14-.1.14-.32v-3.68q0-.62-.48-.67-.05 0-.13-.01-.07-.01-.11-.01-.03 0-.08-.01-.05-.02-.08-.03-.02-.01-.05-.03-.05-.04-.05-.2t.21-.33q.39-.31 1.04-.31.6 0 .7.04.11.05.19.11.14.09.14.36v4.77q0 .4.44.42.44.02.44.35 0 .38-.41.47-.31.07-.86.07m8.01-.01h-.59q-.89 0-1.11-.27-.09-.12-.09-.3 0-.17.14-.24.13-.07.3-.08.17 0 .3-.1.14-.1.14-.32v-3.9q0-.4-.49-.48-.34-.06-.41-.12-.08-.07-.08-.23 0-.17.24-.31.41-.24 1.02-.24.61 0 .78.17.18.17.18.78.93-1.06 2.58-1.06 1.33 0 1.89.72.55.73.55 2.21v2.46q0 .4.44.42.44.02.44.35 0 .37-.42.47-.31.07-.87.07h-.59q-.89 0-1.1-.27-.1-.12-.1-.3 0-.17.14-.24.14-.07.3-.08.17 0 .31-.1.13-.1.13-.32v-1.99q0-1.27-.29-1.86-.33-.66-1.32-.66-1.2 0-1.63.63-.4.61-.4 1.93v1.95q0 .4.44.42.44.02.44.35 0 .38-.42.47-.3.07-.85.07m17.09-4.26q0 .63-.47 1.1-.93.92-2.63.92-.34 0-.72-.06-.37-.07-.47-.08v-.01q-.52.44-.52.77 0 .3.3.4.41.15 1.16.16l1.16.03q.42.01.9.04.49.04.86.14.37.09.69.26.65.34.65 1.16 0 .62-.32 1.09-.32.47-.86.74-1.07.56-2.55.56-1.29 0-2.27-.36-.52-.19-.83-.56-.31-.38-.31-.9 0-.97.98-1.49-.26-.26-.35-.48-.1-.23-.1-.53 0-.3.06-.46.05-.17.17-.3.15-.18.56-.49-.64-.32-.98-.72-.34-.4-.34-1.01t.28-1.06q.29-.46.75-.72.95-.54 2.11-.54.33 0 1.23.17.89.16 1 .16.61 0 .72-.61.87 0 .87.7 0 .34-.2.53-.2.2-.47.2-.26 0-.56-.03.2.17.35.53.15.36.15.75m-3.06-1.81q-.74 0-1.26.43-.51.43-.51 1.13 0 .71.53 1.16.53.45 1.29.45.77 0 1.24-.42.48-.42.48-1.1 0-.68-.52-1.17-.52-.48-1.25-.48m.11 8.23q1.06 0 1.6-.23.55-.22.76-.51.21-.29.21-.69 0-.84-3.26-.84-.93 0-.93-.02-.52.52-.52 1 0 1.29 2.14 1.29m17.69-1.98q-1.54 0-2.49-.98-.94-.97-.94-2.47 0-1 .5-1.78.5-.77 1.35-1.19.85-.41 1.9-.41 1.5 0 2.48.93.97.94.97 2.42 0 1.03-.5 1.83-.5.79-1.35 1.22-.86.43-1.92.43m.28-.76q1.02 0 1.59-.69.57-.69.57-1.84 0-1.15-.65-1.98-.66-.84-1.69-.84-1.03 0-1.58.71-.56.7-.56 1.84 0 1.14.65 1.97.65.83 1.67.83m9.83.58h-.59q-.89 0-1.1-.27-.1-.12-.1-.3 0-.17.14-.24.13-.07.3-.08.17 0 .3-.1.14-.1.14-.32v-3.9q0-.4-.49-.48-.34-.06-.41-.12-.08-.07-.08-.23 0-.17.24-.31.41-.24 1.02-.24.61 0 .78.17.18.17.18.78.94-1.06 2.58-1.06 1.33 0 1.89.72.55.73.55 2.21v2.46q0 .4.44.42.44.02.44.35 0 .37-.42.47-.31.07-.87.07h-.58q-.9 0-1.11-.27-.1-.12-.1-.3 0-.17.14-.24.14-.07.3-.08.17 0 .31-.1.13-.1.13-.32v-1.99q0-1.27-.29-1.86-.33-.66-1.32-.66-1.2 0-1.63.63-.4.61-.4 1.93v1.95q0 .4.44.42.44.02.44.35 0 .38-.41.47-.31.07-.86.07m12.74 0h-.59q-.89 0-1.1-.27-.1-.12-.1-.3 0-.17.14-.24.13-.07.3-.08.16 0 .3-.1.14-.1.14-.32v-7.22q0-.62-.5-.67-.04-.01-.12-.01-.07-.01-.11-.01-.03-.01-.08-.02-.06-.01-.08-.02-.02-.01-.04-.03-.05-.04-.05-.2t.21-.33q.38-.31 1.03-.31.69 0 .81.08.23.16.23.43v8.31q0 .4.44.42.44.02.44.35 0 .38-.41.47-.31.07-.86.07m6.74-8.57q0-.3.29-.57.29-.26.64-.26.34 0 .67.21.32.21.32.56 0 .35-.27.59-.28.23-.67.23-.4 0-.69-.22-.29-.21-.29-.54m1.43 8.58h-.59q-.89 0-1.11-.27-.09-.12-.09-.3 0-.17.13-.24.14-.07.31-.08.17 0 .3-.1.14-.1.14-.32v-3.68q0-.62-.49-.67-.04 0-.12-.01-.07-.01-.11-.01-.03 0-.08-.01-.05-.02-.08-.03-.02-.01-.05-.03-.05-.04-.05-.2t.21-.33q.39-.31 1.04-.31.6 0 .7.04.11.05.19.11.14.09.14.36v4.77q0 .4.44.42.44.02.44.35 0 .38-.41.47-.31.07-.86.07m8.01-.01h-.59q-.89 0-1.11-.27-.09-.12-.09-.3 0-.17.14-.24.13-.07.3-.08.17 0 .3-.1.14-.1.14-.32v-3.9q0-.4-.49-.48-.34-.06-.42-.12-.07-.07-.07-.23 0-.17.24-.31.41-.24 1.02-.24.61 0 .78.17.18.17.18.78.93-1.06 2.57-1.06 1.34 0 1.9.72.55.73.55 2.21v2.46q0 .4.44.42.44.02.44.35 0 .37-.42.47-.31.07-.87.07h-.59q-.89 0-1.1-.27-.1-.12-.1-.3 0-.17.14-.24.13-.07.3-.08.17 0 .31-.1.13-.1.13-.32v-1.99q0-1.27-.29-1.86-.33-.66-1.32-.66-1.2 0-1.63.63-.4.61-.4 1.93v1.95q0 .4.44.42.44.02.44.35 0 .38-.42.47-.3.07-.85.07m11.54-.75q-.95-.93-.95-2.47 0-1.53.96-2.5.95-.96 2.43-.96 1.17 0 1.97.76t.8 1.9q0 .55-.87.55h-3.96q.01 1.11.72 1.87.7.76 1.78.76.71 0 1.38-.42.35-.22.45-.22.1 0 .23.1.12.1.12.24 0 .38-.48.7-.48.31-1.06.47-.58.15-1.02.15-1.55 0-2.5-.93m3.96-3.44q-.02-.78-.41-1.28-.4-.49-1.16-.49-.77 0-1.34.55-.57.55-.6 1.25h1.6q1.06 0 1.91-.03m15.15 3.56q1.54 0 1.54-.94 0-.71-1.39-1.11-.26-.08-.63-.18-.69-.19-.93-.28-.6-.23-1.02-.68-.41-.44-.41-1.05 0-.79.75-1.31.74-.52 1.8-.52 1.04 0 1.94.38.44.18.72.51.28.33.28.69 0 .35-.29.56-.28.22-.58.22-.31 0-.41-.06-.1-.06-.1-.27 0-1.32-1.4-1.32-.58 0-1.01.25-.43.26-.43.67 0 .64 1.34 1.02.21.05.51.13.3.08.56.16.25.08.53.18.27.11.58.28.31.17.5.37.44.45.44 1.09 0 .64-.43 1.1-.85.91-2.46.91-1.04 0-1.93-.34-.45-.18-.72-.49-.27-.31-.27-.67 0-.36.22-.55.23-.2.51-.2.29 0 .49.18t.2.44q0 .27-.04.57.72.26 1.54.26m8.24-1.21v-3.82h-.42q-.25 0-.37-.05-.11-.04-.11-.2 0-.15.13-.28.14-.12.31-.19.47-.19.56-.33.09-.13.28-.58.46-1.13.76-1.13.16 0 .18.34.03.34.03.52v.53q-.01.35-.01.48l1.63.01q.24 0 .4.12.17.12.17.32t-.17.31q-.16.11-.4.11h-1.63l-.01 3.49q0 1.48.75 1.48.2 0 .61-.12.4-.13.52-.13.28 0 .28.32 0 .25-.66.51-.66.25-1.35.25-.69 0-1.09-.54-.39-.54-.39-1.42m11.5 2.02q-1.55 0-2.49-.98-.94-.97-.94-2.47 0-1 .5-1.78.49-.77 1.35-1.19.85-.41 1.89-.41 1.51 0 2.48.93.98.94.98 2.42 0 1.03-.5 1.83-.5.79-1.36 1.22-.85.43-1.91.43m.28-.76q1.02 0 1.59-.69.57-.69.57-1.84 0-1.15-.66-1.98-.65-.84-1.68-.84-1.03 0-1.59.71-.55.7-.55 1.84 0 1.14.65 1.97.65.83 1.67.83m9.85.58h-.59q-.9 0-1.11-.27-.09-.12-.09-.3 0-.17.13-.24.14-.07.31-.08.16 0 .3-.1.14-.1.14-.32v-3.38q0-.6-.15-.75-.15-.14-.24-.18-.1-.04-.32-.11-.21-.06-.34-.12-.13-.06-.13-.18 0-.55 1.47-.55.62 0 .78.22.17.21.17.99.23-.59.77-.92.54-.34 1.1-.34.57 0 .93.24.37.25.37.62t-.24.59q-.24.23-.59.23t-.6-.19q-.25-.18-.32-.48-.18-.02-.3-.02-1.06 0-1.06 2.45v1.88q0 .4.44.42.44.02.44.35 0 .38-.41.47-.32.07-.86.07m8.61-.75q-.95-.93-.95-2.47 0-1.53.95-2.5.96-.96 2.43-.96 1.17 0 1.98.76.8.76.8 1.9 0 .55-.88.55h-3.95q.01 1.11.71 1.87.71.76 1.78.76.71 0 1.38-.42.36-.22.46-.22.1 0 .22.1.13.1.13.24 0 .38-.48.7-.49.31-1.07.47-.58.15-1.02.15-1.55 0-2.49-.93m3.95-3.44q-.01-.78-.41-1.28-.4-.49-1.16-.49-.76 0-1.33.55-.57.55-.61 1.25h1.6q1.07 0 1.91-.03m12.52 4.02q-.11-.06-.17-.16-.05-.1-.05-.26 0-.15.14-.22t.3-.08q.17 0 .31-.1.13-.1.13-.32v-4.39h-.47q-.18 0-.3-.12-.12-.13-.12-.37t.12-.31q.11-.08.43-.08h.34v-1q0-1.15.7-1.78.69-.62 1.9-.62.98 0 1.42.39.25.22.25.58 0 .83-.84.83-.73 0-.73-.83v-.1q-.26-.11-.53-.11-1.17 0-1.17 1.22 0 .8.3 1.42h.99q.5 0 .5.29 0 .23-.15.4t-.32.17h-1.02v4.41q0 .4.44.42.45.02.45.35 0 .38-.51.47-.37.07-.73.07h-.51q-.16 0-.27-.01-.12 0-.31-.01-.2-.02-.3-.05-.1-.04-.22-.1m11.83.35q-1.55 0-2.49-.98-.95-.97-.95-2.47 0-1 .5-1.78.5-.77 1.35-1.19.86-.41 1.9-.41 1.5 0 2.48.93.98.94.98 2.42 0 1.03-.5 1.83-.5.79-1.36 1.22-.85.43-1.91.43m.28-.76q1.02 0 1.59-.69.57-.69.57-1.84 0-1.15-.66-1.98-.66-.84-1.68-.84-1.03 0-1.59.71-.55.7-.55 1.84 0 1.14.65 1.97.65.83 1.67.83m9.86.58h-.59q-.9 0-1.11-.27-.09-.12-.09-.3 0-.17.13-.24.14-.07.31-.08.16 0 .3-.1.14-.1.14-.32v-3.38q0-.6-.15-.75-.15-.14-.25-.18-.1-.04-.31-.11-.21-.06-.34-.12-.14-.06-.14-.18 0-.55 1.47-.55.63 0 .79.22.17.21.17.99.23-.59.77-.92.54-.34 1.1-.34t.93.24q.37.25.37.62t-.24.59q-.24.23-.59.23t-.6-.19q-.25-.18-.32-.48-.18-.02-.3-.02-1.06 0-1.06 2.45v1.88q0 .4.44.42.44.02.44.35 0 .38-.41.47-.32.07-.86.07m20.42-4.26q0 .63-.47 1.1-.93.92-2.63.92-.34 0-.72-.06-.37-.07-.47-.08v-.01q-.52.44-.52.77 0 .3.3.4.41.15 1.16.16l1.16.03q.42.01.9.04.49.04.86.14.37.09.69.26.66.34.66 1.16 0 .62-.33 1.09-.32.47-.86.74-1.07.56-2.55.56-1.29 0-2.27-.36-.52-.19-.83-.56-.31-.38-.31-.9 0-.97.98-1.49-.26-.26-.35-.48-.09-.23-.09-.53 0-.3.05-.46.05-.17.17-.3.15-.18.56-.49-.64-.32-.98-.72-.34-.4-.34-1.01t.29-1.06q.28-.46.74-.72.95-.54 2.11-.54.33 0 1.23.17.9.16 1 .16.61 0 .72-.61.87 0 .87.7 0 .34-.2.53-.2.2-.47.2-.26 0-.56-.03.2.17.35.53.15.36.15.75m-3.06-1.81q-.74 0-1.26.43-.51.43-.51 1.13 0 .71.53 1.16.53.45 1.29.45.77 0 1.24-.42.48-.42.48-1.1 0-.68-.52-1.17-.51-.48-1.25-.48m.11 8.23q1.06 0 1.6-.23.55-.22.76-.51.21-.29.21-.69 0-.84-3.26-.84-.93 0-.93-.02-.52.52-.52 1 0 1.29 2.14 1.29m8.93-2.91q-.95-.93-.95-2.47 0-1.53.96-2.5.95-.96 2.43-.96 1.17 0 1.97.76t.8 1.9q0 .55-.87.55h-3.96q.01 1.11.72 1.87.7.76 1.77.76.72 0 1.39-.42.35-.22.45-.22.1 0 .23.1.12.1.12.24 0 .38-.48.7-.48.31-1.06.47-.58.15-1.02.15-1.55 0-2.5-.93m3.95-3.44q-.01-.78-.41-1.28-.39-.49-1.15-.49-.77 0-1.34.55-.57.55-.6 1.25h1.6q1.06 0 1.9-.03m7.79 4.19h-.59q-.89 0-1.1-.27-.1-.12-.1-.3 0-.17.14-.24.13-.07.3-.08.17 0 .31-.1.13-.1.13-.32v-3.9q0-.4-.49-.48-.34-.06-.41-.12-.07-.07-.07-.23 0-.17.23-.31.41-.24 1.02-.24.61 0 .79.17.17.17.17.78.94-1.06 2.58-1.06 1.33 0 1.89.72.55.73.55 2.21v2.46q0 .4.45.42.44.02.44.35 0 .37-.43.47-.31.07-.87.07h-.58q-.9 0-1.11-.27-.1-.12-.1-.3 0-.17.14-.24.14-.07.3-.08.17 0 .31-.1.14-.1.14-.32v-1.99q0-1.27-.3-1.86-.33-.66-1.32-.66-1.19 0-1.62.63-.41.61-.41 1.93v1.95q0 .4.44.42.44.02.44.35 0 .38-.41.47-.3.07-.86.07m22.71-2.2q.67 0 .67.5 0 .15-.05.3l-.07.21q-.34.9-.58 1.06-.29.2-.75.2l-.57-.03h-.06l-1.14-.05-2.41.02q-.5 0-.5-.37 0-.33 1.46-2.08.12-.15 1.18-1.42l.41-.48q.15-.19.48-.58.58-.69.66-.82-.19-.02-.47-.02l-1.29.01h-.2l-.24.01-.41-.02v-.02q-.53 1.34-1.08 1.34-.24 0-.39-.13-.15-.12-.15-.35 0-.57.32-1.1.32-.52.75-.52h4.71q.27.08.27.36 0 .36-2.43 3.18-.09.1-.67.78l-.31.35q-.09.12-.29.33-.41.44-.56.67.25.07.67.07h.78q.78 0 1.34-.06v.01q.1-.09.25-.44t.32-.63q.16-.28.35-.28"></path></svg></svg>